<svg width="40" height="40" viewBox="0 0 1226 395" fill="none" xmlns="http://www.w3.org/2000/svg">
<path d="M0 98.6667V59.2C0 43.4992 6.23713 28.4414 17.3393 17.3393C28.4414 6.23713 43.4992 0 59.2 0H98.6667C103.9 0 108.92 2.07904 112.62 5.77976C116.321 9.48048 118.4 14.4997 118.4 19.7333C118.4 24.9669 116.321 29.9862 112.62 33.6869C108.92 37.3876 103.9 39.4667 98.6667 39.4667H59.2C53.9664 39.4667 48.9471 41.5457 45.2464 45.2464C41.5457 48.9471 39.4667 53.9664 39.4667 59.2V98.6667C39.4667 103.9 37.3876 108.92 33.6869 112.62C29.9862 116.321 24.9669 118.4 19.7333 118.4C14.4997 118.4 9.48048 116.321 5.77976 112.62C2.07904 108.92 0 103.9 0 98.6667ZM0 335.467C0 351.167 6.23713 366.225 17.3393 377.327C28.4414 388.429 43.4992 394.667 59.2 394.667H98.6667C103.9 394.667 108.92 392.588 112.62 388.887C116.321 385.186 118.4 380.167 118.4 374.933C118.4 369.7 116.321 364.68 112.62 360.98C108.92 357.279 103.9 355.2 98.6667 355.2H59.2C53.9664 355.2 48.9471 353.121 45.2464 349.42C41.5457 345.719 39.4667 340.7 39.4667 335.467V296C39.4667 290.766 37.3876 285.747 33.6869 282.046C29.9862 278.346 24.9669 276.267 19.7333 276.267C14.4997 276.267 9.48048 278.346 5.77976 282.046C2.07904 285.747 0 290.766 0 296V335.467ZM394.667 296C394.667 290.766 392.588 285.747 388.887 282.046C385.186 278.346 380.167 276.267 374.933 276.267C369.7 276.267 364.68 278.346 360.98 282.046C357.279 285.747 355.2 290.766 355.2 296V335.467C355.2 340.7 353.121 345.719 349.42 349.42C345.719 353.121 340.7 355.2 335.467 355.2H296C290.766 355.2 285.747 357.279 282.046 360.98C278.346 364.68 276.267 369.7 276.267 374.933C276.267 380.167 278.346 385.186 282.046 388.887C285.747 392.588 290.766 394.667 296 394.667H335.467C351.167 394.667 366.225 388.429 377.327 377.327C388.429 366.225 394.667 351.167 394.667 335.467V296ZM394.667 59.2C394.667 43.4992 388.429 28.4414 377.327 17.3393C366.225 6.23713 351.167 0 335.467 0H296C290.766 0 285.747 2.07904 282.046 5.77976C278.346 9.48048 276.267 14.4997 276.267 19.7333C276.267 24.9669 278.346 29.9862 282.046 33.6869C285.747 37.3876 290.766 39.4667 296 39.4667H335.467C340.7 39.4667 345.719 41.5457 349.42 45.2464C353.121 48.9471 355.2 53.9664 355.2 59.2V98.6667C355.2 103.9 357.279 108.92 360.98 112.62C364.68 116.321 369.7 118.4 374.933 118.4C380.167 118.4 385.186 116.321 388.887 112.62C392.588 108.92 394.667 103.9 394.667 98.6667V59.2Z" fill="#F2CD5C"/>
<path d="M65.7119 249.824L126.116 189.42C136.404 179.133 153.084 179.133 163.372 189.42L205.148 231.196C215.435 241.483 232.116 241.483 242.404 231.196L329.152 144.448M329.152 144.448V210.308M329.152 144.448H263.292" stroke="#F2CD5C" stroke-width="50" stroke-linecap="round" stroke-linejoin="round"/>
<path d="M554.527 155.52C561.012 155.52 566.559 156.629 571.167 158.848C575.775 160.981 579.316 164.096 581.791 168.192C584.351 172.203 585.631 177.067 585.631 182.784C585.631 188.501 584.351 193.408 581.791 197.504C579.316 201.515 575.775 204.629 571.167 206.848C566.559 208.981 561.012 210.048 554.527 210.048H536.735V240H519.071V155.52H554.527ZM551.839 196.096C557.129 196.096 561.097 194.987 563.743 192.768C566.388 190.464 567.711 187.136 567.711 182.784C567.711 178.347 566.388 175.019 563.743 172.8C561.097 170.581 557.129 169.472 551.839 169.472H536.735V196.096H551.839ZM639.069 155.52C648.626 155.52 656.135 157.824 661.597 162.432C667.058 167.04 669.789 173.227 669.789 180.992C669.789 189.269 667.058 195.627 661.597 200.064C656.135 204.416 648.669 206.592 639.197 206.592L637.405 207.616H619.229V240H601.821V155.52H639.069ZM637.021 194.176C641.97 194.176 645.639 193.195 648.029 191.232C650.503 189.184 651.741 186.069 651.741 181.888C651.741 177.707 650.503 174.635 648.029 172.672C645.639 170.624 641.97 169.6 637.021 169.6H619.229V194.176H637.021ZM647.389 197.888L674.781 240H654.941L632.285 203.008L647.389 197.888ZM706.485 155.52V240H688.821V155.52H706.485ZM800.766 216.704C799.144 222.165 796.584 226.731 793.086 230.4C789.587 234.069 785.448 236.8 780.67 238.592C775.891 240.384 770.643 241.28 764.926 241.28C756.563 241.28 749.31 239.531 743.166 236.032C737.107 232.533 732.414 227.541 729.086 221.056C725.843 214.571 724.222 206.805 724.222 197.76C724.222 188.715 725.843 180.949 729.086 174.464C732.414 167.979 737.107 162.987 743.166 159.488C749.31 155.989 756.478 154.24 764.67 154.24C770.472 154.24 775.72 155.051 780.414 156.672C785.107 158.208 789.075 160.597 792.318 163.84C795.646 167.083 798.078 171.179 799.614 176.128L783.614 182.912C782.163 177.792 779.944 174.165 776.958 172.032C773.971 169.813 770.131 168.704 765.438 168.704C760.83 168.704 756.776 169.813 753.278 172.032C749.864 174.251 747.219 177.536 745.342 181.888C743.464 186.155 742.526 191.445 742.526 197.76C742.526 203.989 743.379 209.28 745.086 213.632C746.878 217.984 749.48 221.269 752.894 223.488C756.307 225.707 760.488 226.816 765.438 226.816C770.046 226.816 774.014 225.579 777.342 223.104C780.755 220.629 783.144 216.875 784.51 211.84L800.766 216.704ZM815.821 240V155.52H879.181V169.728H833.485V190.72H869.452V204.288H833.485V225.792H880.973V240H815.821ZM963.637 155.52V169.728H935.349V240H917.685V169.728H889.269V155.52H963.637ZM1048.6 155.52V206.72C1048.6 218.24 1045.53 226.901 1039.38 232.704C1033.24 238.421 1024.28 241.28 1012.5 241.28C1000.73 241.28 991.767 238.421 985.623 232.704C979.479 226.901 976.407 218.24 976.407 206.72V155.52H994.071V205.952C994.071 213.035 995.564 218.283 998.551 221.696C1001.62 225.109 1006.27 226.816 1012.5 226.816C1018.73 226.816 1023.34 225.109 1026.33 221.696C1029.31 218.283 1030.81 213.035 1030.81 205.952V155.52H1048.6ZM1106.19 155.52C1115.75 155.52 1123.26 157.824 1128.72 162.432C1134.18 167.04 1136.91 173.227 1136.91 180.992C1136.91 189.269 1134.18 195.627 1128.72 200.064C1123.26 204.416 1115.79 206.592 1106.32 206.592L1104.53 207.616H1086.35V240H1068.95V155.52H1106.19ZM1104.15 194.176C1109.09 194.176 1112.76 193.195 1115.15 191.232C1117.63 189.184 1118.87 186.069 1118.87 181.888C1118.87 177.707 1117.63 174.635 1115.15 172.672C1112.76 170.624 1109.09 169.6 1104.15 169.6H1086.35V194.176H1104.15ZM1114.51 197.888L1141.91 240H1122.07L1099.41 203.008L1114.51 197.888ZM1155.95 240V155.52H1219.31V169.728H1173.61V190.72H1209.58V204.288H1173.61V225.792H1221.1V240H1155.95Z" fill="url(#paint0_linear_123_2635)"/>
<defs>
<linearGradient id="paint0_linear_123_2635" x1="508" y1="196.5" x2="1226" y2="196.5" gradientUnits="userSpaceOnUse">
<stop stop-color="#F2CD5C"/>
<stop offset="0.925" stop-color="white"/>
</linearGradient>
</defs>
</svg>
