<svg width="40" height="40" viewBox="0 0 40 40" fill="none" xmlns="http://www.w3.org/2000/svg">
<path d="M0 10V6C0 4.4087 0.632141 2.88258 1.75736 1.75736C2.88258 0.632141 4.4087 0 6 0H10C10.5304 0 11.0391 0.210714 11.4142 0.585786C11.7893 0.960859 12 1.46957 12 2C12 2.53043 11.7893 3.03914 11.4142 3.41421C11.0391 3.78929 10.5304 4 10 4H6C5.46957 4 4.96086 4.21071 4.58579 4.58579C4.21071 4.96086 4 5.46957 4 6V10C4 10.5304 3.78929 11.0391 3.41421 11.4142C3.03914 11.7893 2.53043 12 2 12C1.46957 12 0.960859 11.7893 0.585786 11.4142C0.210714 11.0391 0 10.5304 0 10ZM0 34C0 35.5913 0.632141 37.1174 1.75736 38.2426C2.88258 39.3679 4.4087 40 6 40H10C10.5304 40 11.0391 39.7893 11.4142 39.4142C11.7893 39.0391 12 38.5304 12 38C12 37.4696 11.7893 36.9609 11.4142 36.5858C11.0391 36.2107 10.5304 36 10 36H6C5.46957 36 4.96086 35.7893 4.58579 35.4142C4.21071 35.0391 4 34.5304 4 34V30C4 29.4696 3.78929 28.9609 3.41421 28.5858C3.03914 28.2107 2.53043 28 2 28C1.46957 28 0.960859 28.2107 0.585786 28.5858C0.210714 28.9609 0 29.4696 0 30V34ZM40 30C40 29.4696 39.7893 28.9609 39.4142 28.5858C39.0391 28.2107 38.5304 28 38 28C37.4696 28 36.9609 28.2107 36.5858 28.5858C36.2107 28.9609 36 29.4696 36 30V34C36 34.5304 35.7893 35.0391 35.4142 35.4142C35.0391 35.7893 34.5304 36 34 36H30C29.4696 36 28.9609 36.2107 28.5858 36.5858C28.2107 36.9609 28 37.4696 28 38C28 38.5304 28.2107 39.0391 28.5858 39.4142C28.9609 39.7893 29.4696 40 30 40H34C35.5913 40 37.1174 39.3679 38.2426 38.2426C39.3679 37.1174 40 35.5913 40 34V30ZM40 6C40 4.4087 39.3679 2.88258 38.2426 1.75736C37.1174 0.632141 35.5913 0 34 0H30C29.4696 0 28.9609 0.210714 28.5858 0.585786C28.2107 0.960859 28 1.46957 28 2C28 2.53043 28.2107 3.03914 28.5858 3.41421C28.9609 3.78929 29.4696 4 30 4H34C34.5304 4 35.0391 4.21071 35.4142 4.58579C35.7893 4.96086 36 5.46957 36 6V10C36 10.5304 36.2107 11.0391 36.5858 11.4142C36.9609 11.7893 37.4696 12 38 12C38.5304 12 39.0391 11.7893 39.4142 11.4142C39.7893 11.0391 40 10.5304 40 10V6Z" fill="#F2CD5C"/>
<path d="M25.3767 12.7947C24.6437 12.5983 23.8855 13.0509 23.6833 13.8057C23.4811 14.5604 23.9113 15.3315 24.6443 15.5279L25.3767 12.7947ZM31.5119 17.3681C32.2449 17.5645 33.0031 17.1118 33.2053 16.3571C33.4075 15.6023 32.9773 14.8313 32.2443 14.6349L31.5119 17.3681ZM33.2053 16.3571C33.4075 15.6023 32.9773 14.8313 32.2443 14.6349C31.5114 14.4385 30.7532 14.8911 30.551 15.6459L33.2053 16.3571ZM28.7899 22.2183C28.5876 22.9731 29.0179 23.7442 29.7509 23.9406C30.4838 24.137 31.242 23.6843 31.4442 22.9296L28.7899 22.2183ZM32.6641 17.149C33.2883 16.6944 33.4425 15.8122 33.0085 15.1784C32.5744 14.5447 31.7164 14.3994 31.0922 14.854L32.6641 17.149ZM22.4529 22.8639L23.0732 24.1152C23.1307 24.0845 23.1859 24.0499 23.2389 24.0114L22.4529 22.8639ZM19.6467 22.2311L18.537 23.0835L18.5446 23.0939L19.6467 22.2311ZM18.1947 20.225L19.3044 19.3726L19.2992 19.3654L18.1947 20.225ZM15.129 19.7609L14.3409 18.6149C14.3235 18.6276 14.3063 18.6408 14.2894 18.6544L15.129 19.7609ZM14.8282 19.9772L15.5192 21.1881C15.5279 21.1828 15.5365 21.1773 15.545 21.1719L14.8282 19.9772ZM8.00163 22.5106C7.34396 22.912 7.12028 23.7794 7.50199 24.448C7.88364 25.1168 8.72618 25.3336 9.38378 24.9323L8.00163 22.5106ZM24.6443 15.5279L31.5119 17.3681L32.2443 14.6349L25.3767 12.7947L24.6443 15.5279ZM30.551 15.6459L28.7899 22.2183L31.4442 22.9296L33.2053 16.3571L30.551 15.6459ZM31.0922 14.854L21.667 21.7165L23.2389 24.0114L32.6641 17.149L31.0922 14.854ZM21.8327 21.6127C21.4575 21.8125 21.0005 21.7094 20.7486 21.3683L18.5446 23.0939C19.5969 24.5193 21.5058 24.9498 23.0732 24.1152L21.8327 21.6127ZM20.7563 21.3787L19.3044 19.3726L17.085 21.0774L18.537 23.0835L20.7563 21.3787ZM19.2992 19.3654C18.1353 17.779 15.9395 17.4467 14.3409 18.6149L15.9168 20.9069C16.2951 20.6304 16.8148 20.7091 17.0902 21.0846L19.2992 19.3654ZM14.2894 18.6544C14.2323 18.7002 14.1729 18.7431 14.1113 18.7825L15.545 21.1719C15.6913 21.0781 15.8325 20.9765 15.9684 20.8674L14.2894 18.6544ZM14.1371 18.7663L8.00163 22.5106L9.38378 24.9323L15.5192 21.1881L14.1371 18.7663Z" fill="#F2CD5C"/>
</svg>
