<svg width="1898" height="395" viewBox="0 0 1898 395" fill="none" xmlns="http://www.w3.org/2000/svg">
<path d="M0 98.6667V59.2C0 43.4992 6.23713 28.4414 17.3393 17.3393C28.4414 6.23713 43.4992 0 59.2 0H98.6667C103.9 0 108.92 2.07904 112.62 5.77976C116.321 9.48048 118.4 14.4997 118.4 19.7333C118.4 24.9669 116.321 29.9862 112.62 33.6869C108.92 37.3876 103.9 39.4667 98.6667 39.4667H59.2C53.9664 39.4667 48.9471 41.5457 45.2464 45.2464C41.5457 48.9471 39.4667 53.9664 39.4667 59.2V98.6667C39.4667 103.9 37.3876 108.92 33.6869 112.62C29.9862 116.321 24.9669 118.4 19.7333 118.4C14.4997 118.4 9.48048 116.321 5.77976 112.62C2.07904 108.92 0 103.9 0 98.6667ZM0 335.467C0 351.167 6.23713 366.225 17.3393 377.327C28.4414 388.429 43.4992 394.667 59.2 394.667H98.6667C103.9 394.667 108.92 392.588 112.62 388.887C116.321 385.186 118.4 380.167 118.4 374.933C118.4 369.7 116.321 364.68 112.62 360.98C108.92 357.279 103.9 355.2 98.6667 355.2H59.2C53.9664 355.2 48.9471 353.121 45.2464 349.42C41.5457 345.719 39.4667 340.7 39.4667 335.467V296C39.4667 290.766 37.3876 285.747 33.6869 282.046C29.9862 278.346 24.9669 276.267 19.7333 276.267C14.4997 276.267 9.48048 278.346 5.77976 282.046C2.07904 285.747 0 290.766 0 296V335.467ZM394.667 296C394.667 290.766 392.588 285.747 388.887 282.046C385.186 278.346 380.167 276.267 374.933 276.267C369.7 276.267 364.68 278.346 360.98 282.046C357.279 285.747 355.2 290.766 355.2 296V335.467C355.2 340.7 353.121 345.719 349.42 349.42C345.719 353.121 340.7 355.2 335.467 355.2H296C290.766 355.2 285.747 357.279 282.046 360.98C278.346 364.68 276.267 369.7 276.267 374.933C276.267 380.167 278.346 385.186 282.046 388.887C285.747 392.588 290.766 394.667 296 394.667H335.467C351.167 394.667 366.225 388.429 377.327 377.327C388.429 366.225 394.667 351.167 394.667 335.467V296ZM394.667 59.2C394.667 43.4992 388.429 28.4414 377.327 17.3393C366.225 6.23713 351.167 0 335.467 0H296C290.766 0 285.747 2.07904 282.046 5.77976C278.346 9.48048 276.267 14.4997 276.267 19.7333C276.267 24.9669 278.346 29.9862 282.046 33.6869C285.747 37.3876 290.766 39.4667 296 39.4667H335.467C340.7 39.4667 345.719 41.5457 349.42 45.2464C353.121 48.9471 355.2 53.9664 355.2 59.2V98.6667C355.2 103.9 357.279 108.92 360.98 112.62C364.68 116.321 369.7 118.4 374.933 118.4C380.167 118.4 385.186 116.321 388.887 112.62C392.588 108.92 394.667 103.9 394.667 98.6667V59.2Z" fill="#F2CD5C"/>
<path d="M65.7119 249.824L126.116 189.42C136.404 179.133 153.084 179.133 163.372 189.42L205.148 231.196C215.435 241.483 232.116 241.483 242.404 231.196L329.152 144.448M329.152 144.448V210.308M329.152 144.448H263.292" stroke="#F2CD5C" stroke-width="50" stroke-linecap="round" stroke-linejoin="round"/>
<path d="M586.2 118C598.867 118 609.7 120.167 618.7 124.5C627.7 128.667 634.617 134.75 639.45 142.75C644.45 150.583 646.95 160.083 646.95 171.25C646.95 182.417 644.45 192 639.45 200C634.617 207.833 627.7 213.917 618.7 218.25C609.7 222.417 598.867 224.5 586.2 224.5H551.45V283H516.95V118H586.2ZM580.95 197.25C591.284 197.25 599.034 195.083 604.2 190.75C609.367 186.25 611.95 179.75 611.95 171.25C611.95 162.583 609.367 156.083 604.2 151.75C599.034 147.417 591.284 145.25 580.95 145.25H551.45V197.25H580.95ZM751.321 118C769.988 118 784.655 122.5 795.321 131.5C805.988 140.5 811.321 152.583 811.321 167.75C811.321 183.917 805.988 196.333 795.321 205C784.655 213.5 770.071 217.75 751.571 217.75L748.071 219.75H712.571V283H678.571V118H751.321ZM747.321 193.5C756.988 193.5 764.155 191.583 768.821 187.75C773.655 183.75 776.071 177.667 776.071 169.5C776.071 161.333 773.655 155.333 768.821 151.5C764.155 147.5 756.988 145.5 747.321 145.5H712.571V193.5H747.321ZM767.571 200.75L821.071 283H782.321L738.071 210.75L767.571 200.75ZM882.993 118V283H848.493V118H882.993ZM1067.14 237.5C1063.97 248.167 1058.97 257.083 1052.14 264.25C1045.3 271.417 1037.22 276.75 1027.89 280.25C1018.55 283.75 1008.3 285.5 997.136 285.5C980.802 285.5 966.636 282.083 954.636 275.25C942.802 268.417 933.636 258.667 927.136 246C920.802 233.333 917.636 218.167 917.636 200.5C917.636 182.833 920.802 167.667 927.136 155C933.636 142.333 942.802 132.583 954.636 125.75C966.636 118.917 980.636 115.5 996.636 115.5C1007.97 115.5 1018.22 117.083 1027.39 120.25C1036.55 123.25 1044.3 127.917 1050.64 134.25C1057.14 140.583 1061.89 148.583 1064.89 158.25L1033.64 171.5C1030.8 161.5 1026.47 154.417 1020.64 150.25C1014.8 145.917 1007.3 143.75 998.136 143.75C989.136 143.75 981.219 145.917 974.386 150.25C967.719 154.583 962.552 161 958.886 169.5C955.219 177.833 953.386 188.167 953.386 200.5C953.386 212.667 955.052 223 958.386 231.5C961.886 240 966.969 246.417 973.636 250.75C980.302 255.083 988.469 257.25 998.136 257.25C1007.14 257.25 1014.89 254.833 1021.39 250C1028.05 245.167 1032.72 237.833 1035.39 228L1067.14 237.5ZM1096.54 283V118H1220.29V145.75H1131.04V186.75H1201.29V213.25H1131.04V255.25H1223.79V283H1096.54ZM1385.24 118V145.75H1329.99V283H1295.49V145.75H1239.99V118H1385.24ZM1551.18 118V218C1551.18 240.5 1545.18 257.417 1533.18 268.75C1521.18 279.917 1503.68 285.5 1480.68 285.5C1457.68 285.5 1440.18 279.917 1428.18 268.75C1416.18 257.417 1410.18 240.5 1410.18 218V118H1444.68V216.5C1444.68 230.333 1447.6 240.583 1453.43 247.25C1459.43 253.917 1468.52 257.25 1480.68 257.25C1492.85 257.25 1501.85 253.917 1507.68 247.25C1513.52 240.583 1516.43 230.333 1516.43 216.5V118H1551.18ZM1663.67 118C1682.34 118 1697.01 122.5 1707.67 131.5C1718.34 140.5 1723.67 152.583 1723.67 167.75C1723.67 183.917 1718.34 196.333 1707.67 205C1697.01 213.5 1682.42 217.75 1663.92 217.75L1660.42 219.75H1624.92V283H1590.92V118H1663.67ZM1659.67 193.5C1669.34 193.5 1676.51 191.583 1681.17 187.75C1686.01 183.75 1688.42 177.667 1688.42 169.5C1688.42 161.333 1686.01 155.333 1681.17 151.5C1676.51 147.5 1669.34 145.5 1659.67 145.5H1624.92V193.5H1659.67ZM1679.92 200.75L1733.42 283H1694.67L1650.42 210.75L1679.92 200.75ZM1760.85 283V118H1884.6V145.75H1795.35V186.75H1865.6V213.25H1795.35V255.25H1888.1V283H1760.85Z" fill="url(#paint0_linear_121_2629)"/>
<defs>
<linearGradient id="paint0_linear_121_2629" x1="495" y1="197" x2="1898" y2="197" gradientUnits="userSpaceOnUse">
<stop stop-color="#F2CD5C"/>
<stop offset="0.925" stop-color="white"/>
</linearGradient>
</defs>
</svg>
